<svg width="224" height="153" viewBox="0 0 224 153" fill="none" xmlns="http://www.w3.org/2000/svg">
<path d="M202.601 88.6243C203.064 88.7293 203.538 88.7807 204.013 88.7773C209.37 88.7416 214.785 86.9389 218.567 83.0255C222.164 79.3061 223.962 74.2686 223.996 69.1341C223.996 69.0065 223.996 68.879 223.984 68.7531V20.1586C223.983 19.6464 223.915 19.1365 223.783 18.6416C223.537 13.8592 221.743 9.23494 218.385 5.75698C214.603 1.84364 209.188 0.042579 203.831 6.11687e-05C203.407 -0.00188467 202.984 0.0425994 202.57 0.132717C202.146 0.0440483 201.713 -0.000407458 201.28 6.11687e-05H173.388C170.053 6.11687e-05 166.855 2.93379 167.01 6.37774V39.0315H55.5793C53.9875 39.0315 52.3956 39.0127 50.8054 39.0315H50.5962C47.2611 39.0315 44.0638 41.9652 44.2186 45.4091C44.2254 45.5441 44.2356 45.6767 44.2492 45.8071C44.2285 46.0139 44.2182 46.2217 44.2186 46.4296V76.1121H22.7045C22.2848 76.1131 21.8663 76.1587 21.4562 76.2482C21.028 76.1566 20.5914 76.1093 20.1535 76.107C19.6603 76.107 19.1676 76.0855 18.6755 76.0424C17.9835 75.9055 17.3016 75.7214 16.6347 75.4914C16.1623 75.2531 15.7045 74.9867 15.2639 74.6937C14.9166 74.3858 14.5867 74.0588 14.2758 73.7141C13.9961 73.2927 13.7412 72.8555 13.5122 72.4046C13.2905 71.7662 13.1132 71.1133 12.9816 70.4504C12.9509 70.0406 12.9322 69.6307 12.9305 69.2191C12.9254 68.7606 12.8684 68.3042 12.7605 67.8586V19.7283C12.7605 19.3236 12.7809 18.9171 12.8115 18.514C12.94 17.8591 13.1128 17.2136 13.3285 16.582C13.5632 16.113 13.8261 15.6586 14.1159 15.2215C14.4255 14.8762 14.7537 14.548 15.0989 14.2384C15.5321 13.9527 15.9812 13.6921 16.4442 13.4578C17.1155 13.227 17.802 13.0428 18.4987 12.9068C18.9919 12.866 19.4851 12.8439 19.9783 12.8405C20.4277 12.8334 20.8749 12.7764 21.3116 12.6704C21.7686 12.7748 22.2358 12.8273 22.7045 12.8268H50.5962C53.9331 12.8268 57.1287 9.89312 56.9739 6.44917C56.8192 3.00522 54.1711 0.090199 50.5962 0.090199H22.7045C22.262 0.0912348 21.821 0.142008 21.3899 0.241563C20.9283 0.137898 20.4564 0.087117 19.9834 0.090199C14.6261 0.127615 9.21107 1.92867 5.42868 5.84201C1.83167 9.56148 0.0340143 14.599 0 19.7283V68.7089C0.00104122 69.2211 0.0684984 69.7311 0.200684 70.226C0.447288 75.0084 2.24154 79.6326 5.59875 83.1106C9.38114 87.0222 14.7962 88.8267 20.1535 88.8624C20.5736 88.8646 20.9927 88.8213 21.4035 88.7331C21.8313 88.8232 22.2674 88.8682 22.7045 88.8675H50.5962C53.9331 88.8675 57.1287 85.9338 56.9739 82.4898V51.7919H168.405C169.997 51.7919 171.588 51.8123 173.179 51.7919H173.388C176.725 51.7919 179.92 48.8582 179.765 45.4142C179.743 44.9467 179.676 44.4825 179.563 44.0282C179.698 43.5089 179.766 42.9745 179.765 42.438V12.7554H201.28C201.703 12.7548 202.126 12.7086 202.54 12.6177C202.964 12.7064 203.397 12.7525 203.831 12.7554C204.323 12.7554 204.814 12.777 205.305 12.82C206.001 12.9575 206.687 13.1421 207.358 13.3728C207.826 13.6079 208.281 13.8702 208.718 14.1585C209.067 14.4709 209.399 14.8019 209.712 15.15C210 15.5821 210.261 16.0314 210.494 16.4953C210.711 17.1249 210.885 17.7687 211.014 18.4222C211.045 18.8253 211.064 19.2317 211.065 19.6365C211.07 20.095 211.128 20.5515 211.236 20.9971V69.1273C211.236 69.5338 211.215 69.9385 211.184 70.3416C211.052 71.006 210.875 71.6605 210.654 72.3008C210.419 72.7628 210.156 73.2103 209.868 73.641C209.557 73.988 209.227 74.3178 208.88 74.6291C208.447 74.9161 207.997 75.1768 207.533 75.4097C206.866 75.6408 206.184 75.8255 205.492 75.9625C205 76.0021 204.507 76.0237 204.014 76.0271C203.568 76.0316 203.124 76.0852 202.689 76.187C202.228 76.0805 201.755 76.0269 201.281 76.0271H173.39C170.054 76.0271 166.857 78.9608 167.012 82.4048C167.167 85.8487 169.815 88.7825 173.39 88.7825H201.281C201.726 88.7792 202.168 88.7261 202.601 88.6243Z" fill="#1E1000"/>
<path d="M14.986 103.827C13.9214 102.998 12.6857 102.417 11.3686 102.126C9.96605 101.798 7.59299 101.634 4.24938 101.633H0.507812V125.712H4.9909C7.96261 125.712 10.1168 125.541 11.4536 125.201C12.9344 124.846 14.3072 124.137 15.4552 123.137C16.6033 122.136 17.4925 120.873 18.0473 119.455C18.7502 117.772 19.1012 115.851 19.1 113.693C19.0989 111.534 18.748 109.615 18.0473 107.937C17.3956 106.328 16.3415 104.912 14.986 103.827ZM15.9928 118.453C15.5195 119.79 14.7362 120.996 13.7071 121.972C12.9524 122.657 12.0406 123.146 11.0522 123.395C10.0114 123.674 8.24663 123.814 5.75792 123.814H2.69663V103.442H5.05722C7.81918 103.442 9.75403 103.585 10.8618 103.869C11.9044 104.12 12.8697 104.623 13.673 105.334C14.7206 106.273 15.5153 107.46 15.9843 108.786C16.5047 110.19 16.7649 111.812 16.7649 113.653C16.7918 115.287 16.5304 116.912 15.9928 118.455V118.453Z" fill="#1E1000"/>
<path d="M23.1834 122.703C22.9661 122.701 22.7504 122.741 22.5486 122.821C22.3468 122.902 22.1628 123.022 22.0073 123.173C21.8517 123.325 21.7276 123.506 21.6419 123.706C21.5563 123.906 21.5109 124.12 21.5082 124.338C21.5034 124.559 21.544 124.778 21.6273 124.983C21.7107 125.188 21.8351 125.373 21.9929 125.528C22.1847 125.72 22.4208 125.862 22.6802 125.941C22.9397 126.02 23.2146 126.034 23.4808 125.982C23.747 125.93 23.9963 125.813 24.2068 125.642C24.4173 125.471 24.5825 125.251 24.6878 125.001C24.7932 124.751 24.8354 124.479 24.8109 124.208C24.7864 123.938 24.6959 123.678 24.5473 123.451C24.3987 123.224 24.1966 123.038 23.9587 122.907C23.7209 122.777 23.4546 122.707 23.1834 122.703Z" fill="#1E1000"/>
<path d="M56.4118 103.827C55.3472 102.998 54.1115 102.417 52.7944 102.126C51.3896 101.798 49.0165 101.634 45.6752 101.633H41.9336V125.705H46.4269C49.3986 125.705 51.5528 125.535 52.8896 125.195C54.3678 124.838 55.7381 124.13 56.8842 123.131C58.0303 122.131 58.9184 120.87 59.4731 119.455C60.1749 117.772 60.5258 115.851 60.5258 113.693C60.5258 111.534 60.1749 109.615 59.4731 107.937C58.8213 106.328 57.7673 104.912 56.4118 103.827ZM57.4322 118.453C56.9589 119.79 56.1756 120.996 55.1464 121.972C54.3935 122.655 53.4842 123.144 52.4984 123.393C51.4565 123.672 49.6917 123.812 47.2041 123.812H44.1207V103.442H46.4847C49.2489 103.442 51.1838 103.585 52.2892 103.869C53.3319 104.12 54.2971 104.623 55.1005 105.334C56.1496 106.272 56.9456 107.459 57.4152 108.786C57.9356 110.19 58.1958 111.812 58.1958 113.653C58.2227 115.287 57.9613 116.912 57.4237 118.455L57.4322 118.453Z" fill="#1E1000"/>
<path d="M67.8555 125.705L79.7758 125.703V123.649H70.0426V113.274H79.7758V111.22H70.0426V103.689H79.7758V101.633H67.8555V125.705Z" fill="#1E1000"/>
<path d="M108.959 125.716H111.212L108.124 100.625L98.5537 122.054L89.3308 100.625L86.0586 125.716H88.3069L90.1403 107.333L98.5844 126.653L107.166 107.333L108.959 125.716Z" fill="#1E1000"/>
<path d="M120.382 101.633H118.195V125.705H120.382V101.633Z" fill="#1E1000"/>
<path d="M148.061 124.109V121.543C146.938 122.436 145.677 123.142 144.328 123.631C143.032 124.104 141.664 124.346 140.284 124.347C138.913 124.358 137.553 124.101 136.281 123.591C135.037 123.086 133.91 122.334 132.966 121.38C132.007 120.418 131.265 119.263 130.789 117.992C130.294 116.616 130.052 115.163 130.075 113.701C130.075 110.534 131.047 107.964 132.993 105.99C134.939 104.016 137.468 103.029 140.582 103.029C141.932 103.023 143.271 103.274 144.527 103.769C145.869 104.32 147.109 105.092 148.194 106.055L148.218 103.634C147.15 102.794 145.94 102.15 144.646 101.735C143.266 101.302 141.827 101.089 140.381 101.102C138.678 101.096 136.99 101.412 135.405 102.032C133.882 102.613 132.493 103.497 131.323 104.631C130.154 105.77 129.243 107.145 128.651 108.665C128.024 110.269 127.71 111.979 127.728 113.701C127.706 115.425 128.009 117.137 128.622 118.749C129.216 120.269 130.124 121.647 131.286 122.793C132.456 123.941 133.85 124.837 135.381 125.424C136.974 126.05 138.671 126.368 140.383 126.361C141.711 126.356 143.032 126.16 144.305 125.778C145.624 125.388 146.887 124.827 148.061 124.109Z" fill="#1E1000"/>
<path d="M170.665 111.4H157.57V101.633H155.383V125.705H157.57V113.274H170.665V125.705H172.853V101.633H170.665V111.4Z" fill="#1E1000"/>
<path d="M183.495 103.689H193.223V101.633H181.301V125.705L193.23 125.703V123.649H183.495V113.274H193.23V111.22H183.495V103.689Z" fill="#1E1000"/>
<path d="M207.02 114.227C208.969 114.227 210.499 113.689 211.612 112.614C212.724 111.539 213.28 110.066 213.28 108.192C213.28 105.991 212.63 104.347 211.331 103.26C210.032 102.174 208.078 101.632 205.469 101.633H201.047V125.705H203.234V114.228H204.544L212.994 125.705H215.659L207.02 114.227ZM203.234 112.443V103.548H205.431C207.425 103.548 208.838 103.898 209.671 104.599C210.505 105.3 210.921 106.48 210.921 108.14C210.921 109.708 210.518 110.818 209.712 111.47C208.906 112.122 207.484 112.446 205.445 112.443H203.234Z" fill="#1E1000"/>
<path d="M223.461 101.633H221.273V125.705H223.461V101.633Z" fill="#1E1000"/>
<path d="M0.703125 152.457L2.15043 152.46V144.235H8.35124V142.875H2.15043V137.892H8.59104V136.531H0.703125V152.457Z" fill="#1E1000"/>
<path d="M38.093 136.531H36.6406V152.457H38.093V136.531Z" fill="#1E1000"/>
<path d="M65.2812 137.876H69.6657V152.443H71.113V137.876H75.5127V136.516H65.2812V137.876Z" fill="#1E1000"/>
<path d="M113.964 149.171L102.684 135.844V152.444H104.036V139.565L115.306 152.912V136.519H113.964V149.171Z" fill="#1E1000"/>
<path d="M144.059 152.457L151.947 152.462V151.101H145.506V144.235H151.947V142.875H145.506V137.892H151.947V136.531H144.059V152.457Z" fill="#1E1000"/>
<path d="M184.722 143.535C184.546 143.439 184.292 143.305 183.96 143.132C182.117 142.167 181.196 141.126 181.196 140.009C181.196 139.221 181.429 138.597 181.893 138.138C182.358 137.679 182.982 137.449 183.764 137.448C184.289 137.434 184.808 137.558 185.271 137.807C185.696 138.048 186.039 138.412 186.254 138.851L187.375 138.171C187.046 137.539 186.547 137.013 185.934 136.652C185.297 136.302 184.578 136.126 183.851 136.142C182.631 136.142 181.639 136.497 180.875 137.208C180.11 137.919 179.728 138.839 179.728 139.97C179.707 140.816 179.988 141.641 180.521 142.298C181.052 142.943 182.118 143.691 183.72 144.54C184.975 145.208 185.793 145.795 186.174 146.302C186.567 146.861 186.764 147.534 186.737 148.217C186.737 149.269 186.454 150.092 185.887 150.686C185.32 151.28 184.533 151.577 183.526 151.577C182.793 151.596 182.074 151.368 181.485 150.931C180.896 150.471 180.474 149.832 180.283 149.11L179.043 149.773C179.464 150.801 180.043 151.581 180.781 152.113C181.572 152.647 182.51 152.919 183.463 152.892C184.896 152.892 186.03 152.473 186.865 151.635C187.699 150.797 188.116 149.663 188.116 148.234C188.116 147.174 187.89 146.312 187.436 145.65C186.982 144.988 186.078 144.283 184.722 143.535Z" fill="#1E1000"/>
<path d="M223.321 145.65C222.868 144.987 221.961 144.282 220.6 143.535C220.432 143.439 220.178 143.305 219.838 143.132C217.996 142.167 217.075 141.126 217.076 140.009C217.076 139.221 217.308 138.597 217.772 138.138C218.235 137.679 218.859 137.449 219.643 137.448C220.167 137.434 220.687 137.558 221.149 137.807C221.576 138.047 221.919 138.411 222.134 138.851L223.255 138.171C222.926 137.539 222.426 137.013 221.813 136.652C221.176 136.302 220.458 136.126 219.731 136.142C218.511 136.142 217.519 136.497 216.755 137.208C215.991 137.919 215.608 138.839 215.607 139.97C215.586 140.816 215.868 141.641 216.401 142.298C216.929 142.943 217.996 143.69 219.6 144.54C220.853 145.208 221.67 145.795 222.052 146.302C222.448 146.86 222.648 147.533 222.622 148.217C222.622 149.269 222.339 150.092 221.772 150.686C221.205 151.28 220.418 151.577 219.411 151.577C218.675 151.597 217.952 151.37 217.36 150.931C216.772 150.471 216.35 149.831 216.158 149.11L214.918 149.773C215.337 150.801 215.921 151.575 216.668 152.094C217.456 152.633 218.394 152.912 219.348 152.892C220.783 152.892 221.916 152.473 222.75 151.635C223.583 150.797 224 149.663 224 148.234C224.001 147.175 223.775 146.314 223.321 145.65Z" fill="#1E1000"/>
</svg>
