<svg width="590" height="590" viewBox="0 0 590 590" fill="none" xmlns="http://www.w3.org/2000/svg">
<path d="M477.037 0H112.963C50.5753 0 0 50.5753 0 112.963V477.037C0 539.425 50.5753 590 112.963 590H477.037C539.425 590 590 539.425 590 477.037V112.963C590 50.5753 539.425 0 477.037 0Z" fill="#9580A6"/>
<g filter="url(#filter1_if_76_35)">
<path d="M354.513 97C466.722 97 553 183.22 553 295C553 406.78 466.722 493 354.513 493H89V97H354.513ZM334.995 406.696C398.282 406.696 447.008 358.062 447.008 294.958C447.008 231.854 398.338 183.22 334.995 183.22H107.804C107.804 183.22 334.995 183.318 334.995 406.696Z" fill="white"/>
</g>
<defs>
<filter id="filter1_if_76_35" x="87.6" y="95.6" width="487.4" height="401.4" filterUnits="userSpaceOnUse" color-interpolation-filters="sRGB">
<feFlood flood-opacity="0" result="BackgroundImageFix"/>
<feBlend mode="normal" in="SourceGraphic" in2="BackgroundImageFix" result="shape"/>
<feColorMatrix in="SourceAlpha" type="matrix" values="0 0 0 0 0 0 0 0 0 0 0 0 0 0 0 0 0 0 127 0" result="hardAlpha"/>
<feOffset dx="22" dy="4"/>
<feGaussianBlur stdDeviation="89.65"/>
<feComposite in2="hardAlpha" operator="arithmetic" k2="-1" k3="1"/>
<feColorMatrix type="matrix" values="0 0 0 0 1 0 0 0 0 1 0 0 0 0 1 0 0 0 0.25 0"/>
<feBlend mode="normal" in2="shape" result="effect1_innerShadow_76_35"/>
<feGaussianBlur stdDeviation="0.7" result="effect2_foregroundBlur_76_35"/>
</filter>
</defs>
</svg>
